<?xml version="1.0" encoding="utf-8"?>
<svg version="1.1" id="Layer_1" xmlns="http://www.w3.org/2000/svg" xmlns:xlink="http://www.w3.org/1999/xlink" x="0px" y="0px"
	 viewBox="0 0 190 45" enable-background="new 0 0 190 45" xml:space="preserve">
<path d="M17.067,11.402v30.291h-8.4V11.402H2.045V3.941h21.643v7.461H17.067z"/>
<path d="M43.799,41.693h-14.28c-2.834,0-4.25-1.465-4.25-4.398V8.338c0-2.932,1.416-4.397,4.25-4.397h14.28
	c2.866,0,4.299,1.466,4.299,4.397v28.957C48.098,40.228,46.666,41.693,43.799,41.693z M39.648,11.056h-5.979v23.521h5.979V11.056z"
	/>
<path d="M69.247,41.693H55.065c-1.482,0-2.57-0.362-3.261-1.087c-0.692-0.725-1.038-1.829-1.038-3.311V3.941h8.4v30.636h5.979V3.941
	h8.45v33.354C73.595,40.228,72.146,41.693,69.247,41.693z"/>
<path d="M90.84,41.693l-5.238-14.33v-6.72h4.398v-9.586h-5.337v30.637h-8.4V3.941h17.888c2.866,0,4.299,1.466,4.299,4.397v13.045
	c0,2.933-1.433,4.398-4.299,4.398h-0.445l5.93,15.565v0.346H90.84z"/>
<path d="M119.006,41.693h-13.589c-2.866,0-4.299-1.465-4.299-4.398v-8.301h8.4v5.831h5.386v-5.485l-12.354-8.45
	c-0.561-0.396-0.939-0.823-1.136-1.285c-0.198-0.461-0.297-1.12-0.297-1.977v-9.29c0-2.932,1.433-4.397,4.299-4.397h13.638
	c2.866,0,4.299,1.45,4.299,4.348v8.005h-8.45v-5.485h-5.386v5.436l12.304,8.4c0.56,0.396,0.955,0.833,1.186,1.31
	c0.23,0.478,0.346,1.145,0.346,2.001v9.339C123.354,40.228,121.904,41.693,119.006,41.693z"/>
<path d="M157.004,41.693h-18.333V3.941h18.185c2.833,0,4.25,1.466,4.25,4.397v7.906c0,1.285-0.198,2.257-0.593,2.916
	c-0.395,0.659-1.038,1.269-1.927,1.828l-1.779,1.087l1.927,1.087c0.955,0.527,1.631,1.154,2.026,1.878
	c0.396,0.725,0.593,1.713,0.593,2.965v9.29C161.353,40.228,159.902,41.693,157.004,41.693z M152.656,10.908h-5.584v7.857h3.706
	l1.878-1.433V10.908z M152.903,26.77l-1.977-1.285h-3.854v9.24h5.831V26.77z"/>
<path d="M179.487,28.747v12.946h-8.5V28.697l-8.203-24.559V3.941h8.747l3.706,13.342l3.706-13.342h8.746v0.198L179.487,28.747z"/>
<circle opacity="0.5" cx="130.839" cy="22.615" r="4.847"/>
</svg>
